<?xml version="1.0" standalone="no"?>
<!DOCTYPE svg PUBLIC "-//W3C//DTD SVG 20010904//EN"
 "http://www.w3.org/TR/2001/REC-SVG-20010904/DTD/svg10.dtd">
<svg version="1.0" xmlns="http://www.w3.org/2000/svg"
 width="256.000000pt" height="256.000000pt" viewBox="0 0 256.000000 256.000000"
 preserveAspectRatio="xMidYMid meet">
<metadata>
Created by potrace 1.11, written by Peter Selinger 2001-2013
</metadata>
<g transform="translate(0.000000,256.000000) scale(0.100000,-0.100000)"
fill="#000000" stroke="none">
<path d="M1225 2068 c-212 -19 -413 -128 -546 -294 -120 -152 -169 -284 -176
-479 -6 -144 5 -210 55 -339 81 -208 279 -393 494 -461 293 -93 594 -23 816
190 254 242 319 623 161 937 -154 307 -461 477 -804 446z m304 -153 c402 -137
581 -596 384 -980 -50 -95 -181 -227 -278 -277 -210 -110 -450 -110 -660 0
-106 55 -229 182 -283 292 -60 122 -75 199 -69 345 7 169 52 289 157 413 95
114 204 183 352 222 111 30 284 24 397 -15z"/>
<path d="M1461 1674 c-58 -86 -110 -162 -117 -169 -8 -7 -30 -41 -50 -75 -19
-33 -49 -76 -65 -94 -16 -19 -29 -43 -29 -56 0 -12 -29 -133 -65 -270 -37
-142 -62 -255 -58 -266 4 -10 2 -15 -3 -11 -5 3 -10 -3 -10 -13 0 -11 2 -18 4
-16 4 5 200 306 220 340 9 15 41 64 70 108 28 43 52 86 52 94 0 8 11 49 24 92
58 184 126 434 121 443 -4 5 -2 9 3 9 5 0 12 9 15 20 3 11 2 20 -1 20 -4 -1
-54 -71 -111 -156z m-70 -251 c-12 -20 -14 -14 -5 12 4 9 9 14 11 11 3 -2 0
-13 -6 -23z m-165 -360 c-8 -15 -15 -25 -16 -21 0 12 23 58 27 54 3 -2 -2 -17
-11 -33z m-50 -110 c-8 -15 -15 -25 -16 -21 0 12 23 58 27 54 3 -2 -2 -17 -11
-33z m-45 -100 c-11 -21 -20 -35 -21 -31 0 12 33 78 38 74 2 -2 -6 -21 -17
-43z m-40 -90 c-12 -20 -14 -14 -5 12 4 9 9 14 11 11 3 -2 0 -13 -6 -23z"/>
</g>
</svg>
