<?xml version="1.0" standalone="no"?>
<!DOCTYPE svg PUBLIC "-//W3C//DTD SVG 20010904//EN"
 "http://www.w3.org/TR/2001/REC-SVG-20010904/DTD/svg10.dtd">
<svg version="1.0" xmlns="http://www.w3.org/2000/svg"
 width="250.000000pt" height="250.000000pt" viewBox="0 0 250.000000 250.000000"
 preserveAspectRatio="xMidYMid meet">

<g transform="translate(0.000000,250.000000) scale(0.100000,-0.100000)"
fill="#000000" stroke="none">
<path d="M1113 2410 c-676 -85 -1133 -712 -1007 -1381 64 -343 295 -649 609
-811 191 -98 352 -133 575 -125 217 7 390 58 566 166 261 161 442 408 521 710
34 128 42 344 19 477 -82 474 -448 851 -921 949 -93 19 -271 26 -362 15z m358
-60 c457 -93 809 -460 884 -921 78 -485 -171 -963 -620 -1187 -132 -66 -332
-112 -484 -112 -514 0 -959 349 -1092 855 -21 79 -24 112 -24 270 0 165 3 188
28 280 33 121 118 296 186 386 63 83 189 203 271 259 122 83 302 155 449 180
96 16 298 11 402 -10z"/>
<path d="M1270 2298 c0 -18 -57 -31 -67 -14 -7 11 -23 -25 -16 -36 2 -5 17 -1
34 7 16 9 29 13 29 11 0 -3 -14 -13 -30 -21 -26 -13 -29 -19 -20 -35 6 -11 8
-37 4 -58 -4 -28 -2 -41 10 -51 20 -17 68 -6 84 19 10 16 9 21 -9 31 -12 6
-36 8 -53 5 -27 -5 -28 -4 -11 6 11 6 29 19 40 28 11 10 30 20 42 22 17 2 20
7 13 18 -7 11 -13 12 -32 3 -29 -15 -79 -23 -72 -12 2 5 21 11 42 15 31 6 34
8 17 16 -18 8 -18 8 2 4 18 -3 22 0 20 15 -4 26 -27 49 -27 27z m-15 -168 c-3
-5 -14 -10 -23 -10 -15 0 -15 2 -2 10 20 13 33 13 25 0z"/>
<path d="M1160 2212 c0 -17 4 -33 9 -36 10 -7 9 49 -2 60 -4 4 -7 -7 -7 -24z"/>
<path d="M1734 2163 c8 -25 -9 -40 -48 -45 -29 -3 -29 -4 -12 -21 23 -22 12
-36 -36 -46 -31 -7 -32 -8 -12 -18 15 -9 26 -9 45 1 22 11 25 9 34 -18 11 -31
60 -74 72 -63 3 4 -8 27 -25 51 -40 55 -42 86 -7 86 25 0 32 10 18 24 -5 4 -8
19 -8 33 0 15 -6 28 -14 31 -9 3 -11 -1 -7 -15z"/>
<path d="M695 2150 c-18 -7 -19 -8 -2 -15 9 -4 25 -4 34 -1 13 5 11 0 -6 -18
-14 -14 -22 -29 -18 -32 4 -4 20 8 37 26 17 18 34 30 37 26 4 -3 -8 -19 -25
-34 l-32 -27 24 -51 c13 -28 29 -55 35 -58 17 -11 66 32 68 60 3 34 -13 38
-54 14 l-36 -21 14 23 c8 13 15 32 14 43 0 11 9 28 20 37 19 15 19 17 2 23 -9
4 -27 5 -39 2 -12 -3 -28 -2 -37 2 -9 5 -25 5 -36 1z m108 -140 c-5 -20 -15
-25 -26 -13 -5 4 18 30 30 33 0 0 -1 -9 -4 -20z"/>
<path d="M670 2079 c0 -17 20 -49 31 -49 5 0 3 14 -6 30 -16 31 -25 38 -25 19z"/>
<path d="M1063 2021 c-147 -36 -314 -137 -405 -243 -133 -156 -198 -327 -198
-523 0 -225 70 -393 230 -556 97 -98 186 -155 304 -194 435 -145 891 97 1018
541 19 65 23 102 22 214 0 125 -3 142 -33 230 -45 134 -99 220 -200 320 -120
118 -237 183 -389 215 -92 20 -260 18 -349 -4z m402 -55 c238 -77 418 -253
494 -484 105 -321 -22 -671 -311 -860 -182 -118 -422 -149 -630 -81 -292 96
-496 361 -515 669 -22 366 228 693 592 774 103 23 266 15 370 -18z"/>
<path d="M1130 1866 c-14 -8 -35 -28 -48 -45 -22 -30 -24 -31 -45 -16 -34 24
-60 18 -98 -22 l-34 -37 38 32 c41 35 62 39 91 17 18 -14 18 -15 -8 -50 -15
-19 -23 -35 -18 -35 4 0 27 27 51 61 40 57 90 99 118 99 12 0 145 -102 207
-159 23 -21 26 -22 18 -6 -5 11 -31 36 -56 55 l-47 34 28 15 c15 7 39 22 52
32 13 11 32 19 43 19 10 0 51 -31 90 -70 40 -38 74 -68 76 -65 7 7 -133 135
-155 141 -14 4 -41 -6 -82 -30 l-60 -35 -48 40 c-51 42 -73 46 -113 25z"/>
<path d="M670 1305 l0 -285 189 0 189 0 -2 78 -1 77 44 3 43 3 -4 -66 -4 -66
105 2 c115 2 125 4 114 22 -5 7 -8 33 -9 60 l-1 47 39 0 38 0 0 -80 0 -80 200
0 200 0 0 285 0 285 -570 0 -570 0 0 -285z m828 258 c160 -3 292 -10 292 -14
0 -5 -73 -10 -162 -11 l-163 -3 4 -175 c1 -96 4 -176 5 -176 0 -1 16 1 34 3
37 6 44 33 8 33 -23 0 -36 16 -36 46 0 10 12 14 41 14 33 0 40 3 37 17 -2 12
-13 18 -37 18 -27 1 -35 5 -37 23 -2 13 1 22 9 22 8 0 7 4 -3 10 -11 7 -5 10
23 10 31 0 38 3 35 18 -2 11 -14 18 -36 20 -20 2 -32 9 -32 18 0 11 19 14 88
15 140 1 196 1 210 0 7 -1 12 -16 12 -41 0 -25 -5 -40 -12 -41 -10 0 -10 -2 0
-6 9 -3 12 -46 12 -164 l0 -159 -40 0 -40 0 -2 58 -2 57 -3 -57 c-2 -32 -8
-58 -13 -58 -5 0 -10 26 -12 58 l-3 57 -47 3 -48 3 0 -60 c0 -77 -18 -80 -22
-4 -2 36 -8 57 -16 59 -7 1 -8 0 -2 -3 5 -2 10 -29 10 -59 l0 -54 -35 0 -35 0
0 54 c0 34 5 56 13 59 7 3 5 6 -5 6 -15 1 -18 -8 -18 -59 0 -57 -1 -60 -25
-60 -25 0 -25 1 -25 81 l0 80 -47 -3 -48 -3 -3 -65 c-2 -44 -6 -60 -12 -50 -7
10 -10 11 -10 3 0 -9 -23 -13 -80 -13 l-80 0 0 60 0 60 -55 0 -54 0 -3 -72
c-2 -60 -6 -73 -20 -76 -15 -3 -18 5 -18 52 l0 56 -47 -2 -48 -1 43 -4 43 -4
-3 -47 -3 -47 -125 -2 c-69 0 -133 1 -142 4 -16 4 -18 21 -18 184 0 163 2 179
18 180 16 1 16 2 0 6 -10 2 -18 9 -18 14 0 5 63 9 145 9 80 0 145 -2 145 -4 0
-20 -16 -36 -36 -36 -41 0 -22 -45 21 -49 9 -1 10 -6 7 -30 -1 -6 -19 -11 -39
-13 -27 -2 -39 -8 -41 -20 -3 -15 4 -18 40 -19 40 -1 41 -2 13 -9 l-30 -8 33
-1 c35 -1 36 -21 1 -21 -14 0 -19 -7 -19 -28 0 -24 4 -28 30 -30 l30 -2 0 185
0 185 -150 0 c-127 0 -150 2 -150 15 0 13 35 15 258 15 141 0 389 -3 550 -7z
m-524 -48 c4 -12 -4 -15 -39 -15 -38 0 -45 -3 -45 -19 0 -16 8 -21 48 -24 26
-2 -19 -4 -100 -5 l-148 -2 0 40 0 40 139 0 c114 0 140 -3 145 -15z m815 -22
c0 -33 -1 -35 -9 -15 -13 31 -80 33 -80 2 0 -11 -4 -20 -10 -20 -5 0 -10 9
-10 20 0 17 -7 20 -41 20 -32 0 -42 -4 -46 -20 -3 -11 -9 -20 -14 -20 -5 0 -9
9 -9 20 0 17 -7 20 -45 20 -33 0 -45 4 -45 15 0 13 24 15 155 15 l155 0 -1
-37z m-119 -398 l0 -55 -40 0 -40 0 0 55 0 55 40 0 40 0 0 -55z"/>
<path d="M1070 1511 c0 -17 5 -31 10 -31 6 0 10 11 10 24 0 14 -4 28 -10 31
-6 4 -10 -7 -10 -24z"/>
<path d="M1130 1511 c0 -17 5 -31 10 -31 6 0 10 11 10 24 0 14 -4 28 -10 31
-6 4 -10 -7 -10 -24z"/>
<path d="M1160 1510 c0 -19 5 -30 13 -29 6 1 20 -1 30 -5 42 -19 63 24 24 48
-15 9 -21 7 -33 -8 -12 -17 -14 -17 -14 -4 0 9 -4 20 -10 23 -6 4 -10 -7 -10
-25z"/>
<path d="M1260 1510 c0 -16 5 -30 10 -30 6 0 10 14 10 30 0 17 -4 30 -10 30
-5 0 -10 -13 -10 -30z"/>
<path d="M1290 1510 c0 -16 5 -30 10 -30 6 0 10 14 10 30 0 17 -4 30 -10 30
-5 0 -10 -13 -10 -30z"/>
<path d="M1329 1538 c-6 -20 -5 -38 2 -49 6 -10 9 -4 9 19 0 17 -2 32 -5 32
-3 0 -5 -1 -6 -2z"/>
<path d="M1350 1509 c0 -17 4 -28 10 -24 6 3 10 17 10 31 0 13 -4 24 -10 24
-5 0 -10 -14 -10 -31z"/>
<path d="M1392 1510 c0 -19 2 -27 5 -17 2 9 2 25 0 35 -3 9 -5 1 -5 -18z"/>
<path d="M1030 1505 c0 -14 5 -25 10 -25 6 0 10 11 10 25 0 14 -4 25 -10 25
-5 0 -10 -11 -10 -25z"/>
<path d="M1100 1505 c0 -14 5 -25 10 -25 6 0 10 11 10 25 0 14 -4 25 -10 25
-5 0 -10 -11 -10 -25z"/>
<path d="M1040 1442 c-6 -2 -10 -44 -10 -98 l0 -94 195 0 195 0 0 95 c0 84 -2
95 -17 95 -105 3 -355 4 -363 2z m368 -94 l-3 -83 -182 -3 -183 -2 0 85 0 85
185 0 186 0 -3 -82z"/>
<path d="M1153 1403 c43 -2 110 -2 150 0 40 1 5 3 -78 3 -82 0 -115 -2 -72 -3z"/>
<path d="M1383 1345 c0 -27 2 -38 4 -22 2 15 2 37 0 50 -2 12 -4 0 -4 -28z"/>
<path d="M1332 1340 c0 -19 2 -27 5 -17 2 9 2 25 0 35 -3 9 -5 1 -5 -18z"/>
<path d="M1558 1423 c7 -3 16 -2 19 1 4 3 -2 6 -13 5 -11 0 -14 -3 -6 -6z"/>
<path d="M1668 1423 c7 -3 16 -2 19 1 4 3 -2 6 -13 5 -11 0 -14 -3 -6 -6z"/>
<path d="M1700 1403 c0 -19 5 -23 34 -23 27 0 35 4 38 23 4 20 0 22 -34 22
-33 0 -38 -3 -38 -22z"/>
<path d="M796 1413 c16 -3 20 -10 16 -33 -4 -30 -4 -30 45 -30 49 0 50 1 45
26 -3 16 1 30 9 35 11 7 11 9 -3 9 -9 0 -19 -6 -22 -12 -5 -10 -7 -10 -12 0
-3 6 -13 12 -22 12 -15 0 -15 -2 -2 -10 13 -8 13 -10 -2 -10 -9 0 -20 5 -23
10 -3 6 -16 9 -28 9 -21 -2 -21 -2 -1 -6z"/>
<path d="M1570 1395 c0 -11 12 -15 50 -15 38 0 50 4 50 15 0 11 -12 15 -50 15
-38 0 -50 -4 -50 -15z"/>
<path d="M713 1380 c3 -10 0 -21 -7 -23 -6 -3 7 -4 29 -3 40 1 55 10 55 34 0
8 -15 12 -41 12 -36 0 -41 -2 -36 -20z"/>
<path d="M1548 1363 c6 -2 18 -2 25 0 6 3 1 5 -13 5 -14 0 -19 -2 -12 -5z"/>
<path d="M1688 1363 c7 -3 16 -2 19 1 4 3 -2 6 -13 5 -11 0 -14 -3 -6 -6z"/>
<path d="M1700 1300 c0 -17 7 -20 40 -20 33 0 40 3 40 20 0 17 -7 20 -40 20
-33 0 -40 -3 -40 -20z"/>
<path d="M700 1290 c0 -16 7 -20 35 -20 28 0 35 4 35 20 0 16 -7 20 -35 20
-28 0 -35 -4 -35 -20z"/>
<path d="M800 1291 c0 -18 6 -21 41 -21 33 0 40 3 37 18 -2 12 -14 18 -41 20
-32 3 -37 0 -37 -17z"/>
<path d="M1590 1295 c0 -11 12 -15 45 -15 33 0 45 4 45 15 0 11 -12 15 -45 15
-33 0 -45 -4 -45 -15z"/>
<path d="M768 1253 c6 -2 18 -2 25 0 6 3 1 5 -13 5 -14 0 -19 -2 -12 -5z"/>
<path d="M873 1253 c9 -2 23 -2 30 0 6 3 -1 5 -18 5 -16 0 -22 -2 -12 -5z"/>
<path d="M1170 1225 c0 -8 5 -15 10 -15 6 0 10 7 10 15 0 8 -4 15 -10 15 -5 0
-10 -7 -10 -15z"/>
<path d="M1232 1233 c-15 -6 -6 -23 14 -23 8 0 14 7 14 15 0 15 -6 17 -28 8z"/>
<path d="M1304 1229 c-3 -6 -1 -16 5 -22 8 -8 11 -5 11 11 0 24 -5 28 -16 11z"/>
<path d="M1613 1233 c-35 -3 -43 -8 -43 -24 0 -16 7 -19 45 -19 41 0 45 2 45
25 0 14 -1 24 -2 23 -2 -1 -22 -3 -45 -5z"/>
<path d="M1700 1214 c0 -17 7 -23 35 -26 31 -3 35 -1 35 18 0 17 -7 23 -35 26
-31 3 -35 1 -35 -18z"/>
<path d="M715 1198 c-1 -27 1 -28 45 -28 25 0 40 4 35 8 -6 4 -10 16 -9 27 1
17 -5 21 -35 21 -33 1 -36 -2 -36 -28z"/>
<path d="M810 1200 c0 -30 0 -30 58 -29 31 0 51 3 45 6 -7 2 -13 16 -13 29 0
22 -4 24 -45 24 -43 0 -45 -1 -45 -30z"/>
<path d="M1162 1133 l2 -58 3 52 4 52 72 4 72 3 -77 2 -78 2 2 -57z"/>
<path d="M723 1143 c15 -2 37 -2 50 0 12 2 0 4 -28 4 -27 0 -38 -2 -22 -4z"/>
<path d="M807 1143 c-3 -5 12 -7 33 -5 l39 4 4 -44 4 -43 -1 45 c-1 44 -2 45
-38 48 -20 2 -38 -1 -41 -5z"/>
<path d="M1198 1103 c7 -3 16 -2 19 1 4 3 -2 6 -13 5 -11 0 -14 -3 -6 -6z"/>
<path d="M1243 1103 c9 -2 23 -2 30 0 6 3 -1 5 -18 5 -16 0 -22 -2 -12 -5z"/>
<path d="M700 1485 c0 -22 4 -25 35 -25 31 0 35 3 35 25 0 22 -4 25 -35 25
-31 0 -35 -3 -35 -25z"/>
<path d="M795 1501 c-3 -2 -5 -13 -5 -23 0 -14 8 -18 41 -18 36 0 40 2 37 22
-2 18 -10 22 -36 23 -18 0 -35 -1 -37 -4z"/>
<path d="M1020 990 c0 -6 77 -10 210 -10 133 0 210 4 210 10 0 6 -77 10 -210
10 -133 0 -210 -4 -210 -10z"/>
<path d="M1048 923 c100 -2 264 -2 365 0 100 1 18 2 -183 2 -201 0 -283 -1
-182 -2z"/>
<path d="M1076 764 c-5 -14 -4 -15 9 -4 12 10 16 9 21 -4 7 -18 3 -30 -22 -63
-16 -23 -16 -23 20 -23 24 0 36 5 36 14 0 10 -7 12 -22 8 l-22 -5 22 27 c17
22 19 32 11 47 -12 23 -45 25 -53 3z"/>
<path d="M1171 766 c-14 -17 -11 -88 4 -93 6 -2 9 17 6 48 -2 40 0 50 10 47 9
-3 14 -21 14 -51 0 -35 3 -43 13 -35 24 21 7 98 -22 98 -8 0 -19 -6 -25 -14z"/>
<path d="M1255 769 c-16 -24 -5 -99 13 -99 4 0 5 22 4 50 -3 32 0 50 7 50 13
0 14 -9 12 -65 -1 -37 0 -39 14 -21 18 23 19 49 5 77 -12 20 -45 26 -55 8z"/>
<path d="M1350 765 c-10 -12 -10 -15 0 -15 8 0 11 -13 8 -40 -3 -31 0 -40 12
-40 12 0 14 11 12 55 -4 57 -11 66 -32 40z"/>
<path d="M337 1822 c-20 -22 -47 -85 -47 -109 1 -17 2 -17 15 1 8 10 16 24 18
30 6 17 67 -45 67 -68 0 -19 1 -19 13 -2 13 17 14 16 26 -13 8 -17 16 -31 18
-31 11 0 42 46 43 62 0 9 12 26 28 37 27 20 12 30 -17 12 -8 -5 -21 -6 -30 -1
-9 4 -35 17 -59 30 -24 12 -49 19 -57 16 -19 -7 -19 4 1 32 18 26 4 30 -19 4z
m59 -69 c-6 -6 -36 9 -36 18 0 5 9 4 20 -3 10 -7 18 -14 16 -15z m-6 -23 c0
-5 -2 -10 -4 -10 -3 0 -8 5 -11 10 -3 6 -1 10 4 10 6 0 11 -4 11 -10z m70 -5
c0 -8 -4 -15 -10 -15 -5 0 -10 7 -10 15 0 8 5 15 10 15 6 0 10 -7 10 -15z m5
-55 c-5 -8 -11 -8 -17 -2 -6 6 -7 16 -3 22 5 8 11 8 17 2 6 -6 7 -16 3 -22z"/>
<path d="M2046 1821 c-10 -11 -16 -26 -14 -33 3 -8 9 -5 17 10 13 24 31 30 31
9 0 -8 17 -25 37 -38 20 -13 38 -31 40 -39 3 -10 -2 -7 -14 6 -18 21 -55 44
-69 44 -3 0 -4 -9 -1 -20 5 -21 -7 -28 -18 -10 -3 6 -10 10 -16 10 -5 0 -4 -9
3 -20 18 -28 1 -37 -34 -17 -39 22 -44 17 -18 -16 17 -21 28 -25 65 -24 26 1
45 7 45 13 0 19 27 24 40 8 18 -21 30 -17 30 11 0 16 6 25 15 25 22 0 18 25
-10 57 -19 22 -24 24 -25 11 0 -30 -20 -20 -20 10 -1 25 -2 26 -15 8 -13 -18
-41 -14 -30 5 11 17 -22 9 -39 -10z"/>
<path d="M284 1276 c-10 -26 1 -51 23 -54 28 -4 50 32 32 54 -15 18 -48 18
-55 0z"/>
<path d="M2181 1272 c-13 -25 8 -56 35 -50 29 5 27 62 -3 66 -13 2 -26 -4 -32
-16z"/>
<path d="M2140 1065 c0 -3 19 -17 42 -32 l42 -28 -47 -5 c-26 -3 -47 -9 -47
-15 0 -8 34 -9 104 -2 12 1 25 -8 32 -21 7 -15 14 -19 18 -13 11 17 -6 37 -67
80 -53 38 -77 49 -77 36z"/>
<path d="M326 996 c-33 -12 -62 -29 -64 -36 -3 -9 1 -11 14 -5 49 20 61 18 73
-16 15 -44 15 -43 -24 -58 -19 -7 -33 -16 -30 -21 6 -11 155 38 155 51 0 12
-12 11 -44 0 -22 -9 -26 -7 -35 21 -16 45 -14 55 14 62 25 6 35 26 13 25 -7 0
-40 -10 -72 -23z"/>
<path d="M2093 942 c-13 -2 -23 -6 -23 -8 0 -10 31 -36 37 -31 3 3 23 -1 44
-10 40 -16 69 -12 69 8 0 6 -6 9 -14 6 -19 -7 -84 13 -88 27 -2 6 -13 10 -25
8z"/>
<path d="M2030 870 c0 -5 5 -10 10 -10 6 0 10 5 10 10 0 6 -4 10 -10 10 -5 0
-10 -4 -10 -10z"/>
<path d="M2070 852 c0 -9 84 -52 100 -52 25 0 5 20 -39 39 -55 23 -61 25 -61
13z"/>
<path d="M389 828 c-1 -7 0 -28 1 -45 1 -23 -3 -33 -13 -33 -18 0 -29 24 -21
45 4 8 2 15 -4 15 -28 0 -16 -65 14 -77 31 -12 49 10 45 57 -2 39 -1 42 12 31
9 -7 17 -25 20 -39 3 -23 4 -24 11 -9 13 29 -9 67 -39 67 -14 0 -25 -6 -26
-12z"/>
<path d="M2030 780 c-25 -25 -23 -63 3 -68 11 -2 30 6 43 19 18 17 27 20 36
11 13 -13 -6 -42 -28 -42 -8 0 -14 -4 -14 -10 0 -22 40 -9 54 18 27 52 -20 85
-59 42 -23 -25 -35 -26 -35 -2 0 11 10 23 22 29 14 6 18 12 10 17 -6 4 -21 -3
-32 -14z"/>
<path d="M520 750 c0 -5 5 -10 10 -10 6 0 10 5 10 10 0 6 -4 10 -10 10 -5 0
-10 -4 -10 -10z"/>
<path d="M460 714 c-19 -14 -42 -29 -50 -34 -8 -5 -12 -12 -8 -15 10 -10 98
47 98 63 0 15 2 16 -40 -14z"/>
<path d="M1963 685 c-10 -23 -8 -28 30 -59 53 -44 72 -34 22 11 -28 26 -35 37
-26 46 15 15 14 27 -1 27 -7 0 -18 -11 -25 -25z"/>
<path d="M515 660 c4 -6 10 -8 14 -5 13 8 41 -29 32 -43 -6 -10 -14 -8 -33 8
-31 24 -64 26 -72 4 -8 -22 -9 -20 25 -55 l31 -31 31 28 c55 50 56 55 27 84
-20 20 -66 29 -55 10z m5 -55 c12 -14 6 -35 -10 -35 -14 0 -41 31 -35 41 9 14
31 11 45 -6z"/>
<path d="M603 557 c-50 -60 -63 -99 -19 -58 31 29 35 27 29 -19 -4 -26 -2 -40
6 -40 6 0 11 11 11 24 0 40 11 56 36 56 13 0 24 5 24 10 0 6 -16 10 -36 10
l-35 0 25 33 c15 19 26 37 26 40 0 17 -19 1 -67 -56z"/>
<path d="M1885 595 c-32 -31 -31 -40 4 -75 33 -34 63 -31 88 7 12 18 13 27 4
36 -6 6 -12 8 -12 4 -1 -4 -3 -11 -4 -17 -1 -5 -3 -14 -4 -19 -2 -14 -26 -20
-42 -11 -11 7 -8 15 16 40 29 31 29 32 11 46 -27 19 -33 18 -61 -11z m49 -4
c3 -4 -6 -18 -19 -31 -22 -20 -25 -21 -31 -6 -11 29 34 63 50 37z"/>
<path d="M1814 515 c3 -14 9 -37 13 -52 l6 -28 -36 28 c-35 27 -57 34 -57 19
0 -10 103 -71 111 -66 10 6 -23 124 -34 124 -5 0 -6 -11 -3 -25z"/>
<path d="M696 459 c-28 -48 -25 -64 17 -85 29 -16 31 -15 48 7 30 39 43 69 34
76 -4 5 -10 3 -12 -4 -9 -24 -45 -63 -59 -63 -25 0 -27 28 -5 65 24 41 25 45
12 45 -6 0 -21 -19 -35 -41z"/>
<path d="M1670 490 c0 -5 5 -10 10 -10 6 0 10 5 10 10 0 6 -4 10 -10 10 -5 0
-10 -4 -10 -10z"/>
<path d="M1690 456 c0 -2 12 -24 26 -50 26 -47 44 -66 44 -46 0 17 -51 100
-61 100 -5 0 -9 -2 -9 -4z"/>
<path d="M834 408 c-5 -8 0 -9 15 -5 29 7 51 -1 51 -19 0 -11 -11 -14 -41 -12
-51 4 -74 -21 -47 -48 9 -10 25 -18 35 -19 10 0 24 -4 30 -8 8 -5 18 5 28 29
18 44 19 66 3 82 -15 15 -65 16 -74 0z m33 -54 c28 -8 19 -34 -12 -34 -26 0
-40 14 -30 30 7 11 12 12 42 4z"/>
<path d="M1498 388 c4 -18 7 -51 7 -73 0 -38 -2 -40 -32 -43 -31 -3 -33 -1
-47 49 -9 29 -16 59 -16 66 0 7 -4 13 -10 13 -28 0 11 -137 42 -149 51 -19
103 19 92 68 -17 75 -26 101 -34 101 -5 0 -6 -14 -2 -32z"/>
<path d="M1585 407 c-11 -7 -21 -12 -22 -13 -7 -2 42 -104 49 -104 11 0 10 13
-6 51 -16 41 -11 59 16 59 13 0 25 -12 36 -40 17 -39 32 -53 32 -27 -1 6 -9
28 -18 47 -19 38 -52 49 -87 27z"/>
<path d="M1120 384 c0 -8 5 -12 10 -9 6 4 8 11 5 16 -9 14 -15 11 -15 -7z"/>
<path d="M958 324 c-12 -42 -13 -54 -3 -54 7 0 16 15 19 34 8 40 27 59 50 50
13 -5 16 -14 11 -33 -3 -14 -9 -36 -12 -48 -3 -13 -1 -23 5 -23 5 0 15 21 21
47 14 54 4 72 -46 78 -29 4 -31 1 -45 -51z"/>
<path d="M1106 319 c-9 -46 -8 -95 3 -83 12 13 24 114 13 114 -5 0 -12 -14
-16 -31z"/>
<path d="M1204 343 c-12 -2 -25 -14 -28 -26 -9 -35 -7 -85 4 -92 6 -4 10 9 10
32 0 47 20 79 44 70 12 -5 16 -19 16 -57 0 -27 5 -50 10 -50 6 0 10 25 10 55
0 43 -4 56 -19 65 -11 5 -21 9 -23 9 -2 -1 -13 -4 -24 -6z"/>
</g>
</svg>
